<?xml version="1.0" standalone="no"?><!DOCTYPE svg PUBLIC "-//W3C//DTD SVG 1.1//EN" "http://www.w3.org/Graphics/SVG/1.1/DTD/svg11.dtd"><svg t="1753150704447" class="icon" viewBox="0 0 1024 1024" version="1.1" xmlns="http://www.w3.org/2000/svg" p-id="1580" xmlns:xlink="http://www.w3.org/1999/xlink" width="200" height="200"><path d="M652 527h-98v-98c0-22.5-18.4-41-41-41-22.5 0-41 18.4-41 41v98h-98c-22.5 0-41 18.4-41 41 0 22.5 18.4 41 41 41h98v98c0 22.5 18.4 41 41 41 22.5 0 41-18.4 41-41v-98h98c22.5 0 41-18.4 41-41s-18.4-41-41-41zM641 965H384c-22 0-40-18-40-40s18-40 40-40h257c22 0 40 18 40 40s-18 40-40 40zM280 1024H180c-22 0-40-18-40-40s18-40 40-40h100c22 0 40 18 40 40s-18 40-40 40zM844 1024H742.7c-22 0-40-18-40-40s18-40 40-40H844c22 0 40 18 40 40s-18 40-40 40z" p-id="1581" fill="#515151"></path><path d="M900.8 169H121.9c-66.2 0-120 53.8-120 120v550.4c0 53.6 35.3 99 83.8 114.4 2.8 1.3 5.9 2.1 9.1 2.5h0.1c0.5 0.1 2.8 0.4 6.1 0 7.4-0.7 13.9-4 18.8-9.1 0.1-0.1 0.1-0.1 0.2-0.1 5.2-5.4 8.3-12.7 8.3-20.8s-3.2-15.4-8.3-20.8l-0.1-0.1c-2.6-2.7-5.7-4.9-9.2-6.5-2-1-3.4-1.3-3.4-1.3h0.1c-26.1-6.5-45.5-30.1-45.5-58.2V289c0-33.1 26.9-60 60-60h778.9c33.1 0 60 26.9 60 60v550.4c0 25.5-16 47.4-38.6 56-1 0.3-1.9 0.6-2.8 1-0.1 0-0.1 0-0.2 0.1-2.9 1.2-5.5 2.9-7.9 4.9-0.1 0.1-0.3 0.2-0.4 0.3l-0.5 0.5c-4.1 3.7-5.8 7.3-5.8 7.3-2.5 4.4-3.9 9.4-3.9 14.8s1.4 10.4 3.9 14.8c0 0 5.1 10.3 17.3 14 2.8 0.9 5.8 1.4 9 1.4 1.9 0 3.8-0.2 5.6-0.5h0.1c0.1 0 0.2-0.1 0.3-0.1 2.9-0.6 5.6-1.6 8.1-2.9 44.3-17.6 75.8-61 75.8-111.5V289c0-66.1-53.9-120-120-120zM317.4 148.7c-0.6 0-1.2 0-1.8-0.1-16.5-1-29.2-15.1-28.2-31.7 0.1-2.6 1.8-26 12.2-51 15.6-37.6 43.9-60.7 79.5-65l1.8-0.2H643l1.7 0.2c3.9 0.4 24.2 3.5 44.8 19.8 18.6 14.8 41.1 43.6 42.4 97.3 0.4 16.6-12.7 30.3-29.3 30.7h-0.8c-16.2 0-29.6-12.9-30-29.3-0.6-23.2-6.6-40.1-17.9-50.2-6.4-5.7-12.8-7.8-15.5-8.5H384.7c-17.3 2.8-25.3 17.4-29.8 28.2-6.5 15.7-7.7 31.3-7.7 31.5-0.8 15.9-14.1 28.3-29.8 28.3z" p-id="1582" fill="#515151"></path></svg>